# xmcd CD database file
#
# Track frame offsets:
#	150
#	14740
#	31798
#	47953
#	70981
#	86707
#	97281
#	113204
#	130798
#	145078
#	159809
#
# Disc length: 2360 seconds
#
# Revision: 0
# Processed by: cddbd v1.5.2PL0 Copyright (c) Steve Scherf et al.
# Submitted via: CDex 1.70beta2
#
DISCID=9509360b
DTITLE=The Mavericks - What A Crying Shame
DYEAR=1994
DGENRE=Country
TTITLE0=There Goes My Heart
TTITLE1=What A Crying Shame
TTITLE2=Pretend
TTITLE3=I Should Have Been True
TTITLE4=The Things You Said To Me
TTITLE5=Just A Memory
TTITLE6=All That Heaven Will Allow
TTITLE7=Neon Blue
TTITLE8=What A Thrill
TTITLE9=Ain't Found Nobody
TTITLE10=The Losing Side Of Me
EXTD=YEAR: 1994
EXTT0=
EXTT1=
EXTT2=
EXTT3=
EXTT4=
EXTT5=
EXTT6=
EXTT7=
EXTT8=
EXTT9=
EXTT10=
PLAYORDER=
